<svg xmlns="http://www.w3.org/2000/svg" viewBox="0 0 656.56 464.25"><defs><style>.cls-1{fill:#fff;}</style></defs><g id="Layer_2" data-name="Layer 2"><g id="Layer_1-2" data-name="Layer 1"><path class="cls-1" d="M555.08,344.3C497.09,386,437.33,424.54,368,444.8,278,471.09,188.35,471.79,101.05,434c-22.47-9.74-42.72-24.63-63.43-38.76,185.6,70.38,345.47,20.5,492-93.75l-2.31-10.13c-4.71,1.53-9.73,2.44-14.07,4.69-42.73,22.12-87.33,40.39-134,51.07-71.56,16.4-143.76,21.21-215.38-3-20.38-6.88-36.11-18.69-43.52-38-6.65-17.32-10.33-36.14-12.74-54.63-1.91-14.63,2.68-17.61,17.64-18a312.84,312.84,0,0,1,32.65.84l-.2-.13a465.41,465.41,0,0,1,97.11,18.5c23.08,7,53.61,16.54,88.64,38.53A314.52,314.52,0,0,1,372.81,312l-.44.29h.34a407.89,407.89,0,0,1,57.9-35c23.94-11.85,60.95-29.77,111-33.91,5.81-.48,10.63-.68,13.88-.77l1.51,13,.12,1c2.7,22.88,5.19,44.14,7.78,65.39C566.05,331.5,563.06,338.56,555.08,344.3Z"/><path class="cls-1" d="M576.66,93.79c-14.93,7-29.39,15.49-45,20.49-9.09,2.91-20.44,2.15-30-.24-40.64-10.21-80.93-21.81-121.43-32.55-12.66-3.36-16.29-1.32-21.06,9.42,5,7.27,11.39,10.57,20.65,8.3,4.61-1.14,10-1.9,14.41-.71,30.08,8,60,16.59,93.89,26.09-7.12,3.17-10.67,4.88-14.3,6.35-25.93,10.47-51.65,21.54-78,30.92-7.92,2.83-18.36,3.43-26.22.79C302.41,140,235.43,116.4,168.38,93c-1.43-.5-2.6-1.72-7.21-4.88C178.8,81,194,73.92,209.73,68.68,257.18,52.92,305,38.17,352.4,22.35c11.56-3.85,22.34-3,33.13.65Q477.35,54,569,85.45c2.42.83,4.5,2.69,6.74,4.07C576,90.94,576.35,92.36,576.66,93.79Z"/><path class="cls-1" d="M458.08,334c-24.86,20.75-52.8,35-82.87,45.21-61.5,20.84-124.89,27.5-189.36,23.25-30-2-60.13-4.91-89.52-10.82-36.19-7.27-66.18-26.08-83.88-60C-4.6,298.87-2.42,264.8,8.68,231c15.24-46.35,46.25-80.93,84.63-109.56,12.46-9.29,25.24-18.15,37.87-27.21L133.82,97c-8,8.18-15.67,16.66-24,24.49-29.65,28-48.69,61.66-53.78,102.33-6.69,53.52,19.57,100.46,71.25,126.27,36.21,18.08,75.41,24.56,115.6,26.34C297,378.85,349,368.62,400.21,352.38c14.34-4.55,28.6-9.34,42.92-14C448.08,336.83,453.1,335.43,458.08,334Z"/><path class="cls-1" d="M242.28,188.76c-1.46-19.31-2.83-37.48-4.32-57.31,4,.93,9,1.57,13.57,3.24C291,149,330.43,163.22,369.68,178c8.18,3.08,14.8,2.88,22.88-.8,24-10.94,48.45-20.82,72.77-31,4.34-1.81,8.92-3,15.93-5.33-4.38,19.57-7.81,37.25-12.62,54.55-1,3.76-6.63,6.84-10.76,9-24.24,12.92-48.73,25.35-73,38.24-7.77,4.13-14.62,4.47-22.83.33q-41-20.67-82.74-39.95C267.68,197.68,255.35,193.76,242.28,188.76Z"/><path class="cls-1" d="M146.71,218.63c2.38-7.2,4.1-12.74,6.06-18.2,1.06-3,2.53-5.8,3.61-8.23,49-8.73,173.56,46.66,201.64,88.7-33.58-14.24-67.42-29.38-101.87-43S185.2,218.45,146.71,218.63Z"/><path class="cls-1" d="M480.67,238.5c-34,13.44-67.32,28.36-100.43,42.39,14.66-21.95,55.64-47.54,98.43-65.74C478.14,220.74,477.73,231,480.67,238.5Z"/><path class="cls-1" d="M591.55,218.63c-25.78-.11-50.62,2.45-74.6,8.27a48,48,0,0,0,.76-5.82c.45-6.73.38-14.76.23-20.31,25.26-7.66,48.4-11.34,63.94-8.57,1.09,2.43,2.55,5.26,3.62,8.23C587.45,205.89,589.17,211.43,591.55,218.63Z"/><path class="cls-1" d="M101.44,299.35c-40.41-34.92-23-134.1,17.93-167C89,185.4,83.06,240.91,101.44,299.35Z"/><path class="cls-1" d="M485.9,415.55c-37.72,28.24-77,44.25-122.93,48.7Z"/><path class="cls-1" d="M513.77,130.78v95.84a22,22,0,0,1-3.77,8.71,17.89,17.89,0,0,1-9.25,7.27,13.71,13.71,0,0,1-9.25,0c-3.28-1.33-4.89-3.83-6.16-5.82a21.65,21.65,0,0,1-3.29-12.63v-.06L492.85,126Z"/><path class="cls-1" d="M639.72,39.59a40.72,40.72,0,0,0-7.88,1.22,37.28,37.28,0,0,0-17.14,9.72c-.33.34-.67.68-1,1s-.69.65-1,1A37.18,37.18,0,0,0,603,69.67a40.84,40.84,0,0,0-1.23,7.88,40.16,40.16,0,0,0-1.23-7.89,37,37,0,0,0-9.71-17.12l-1-1c-.32-.35-.66-.7-1-1a37.22,37.22,0,0,0-17.15-9.72,40.52,40.52,0,0,0-7.87-1.22,40.64,40.64,0,0,0,7.87-1.23,37.19,37.19,0,0,0,17.15-9.71l1-1q.51-.48,1-1a37.06,37.06,0,0,0,9.71-17.12,40.16,40.16,0,0,0,1.23-7.89A40.64,40.64,0,0,0,603,9.5a37.12,37.12,0,0,0,9.71,17.14c.35.35.7.68,1,1s.63.67,1,1a37.16,37.16,0,0,0,17.14,9.71A40.84,40.84,0,0,0,639.72,39.59Z"/><path class="cls-1" d="M656.56,99.13A28.76,28.76,0,0,0,651,100,26.06,26.06,0,0,0,639,106.83q-.36.36-.69.72l-.72.69a26.06,26.06,0,0,0-6.83,12.06,28,28,0,0,0-.87,5.54,28.28,28.28,0,0,0-.87-5.56,26.12,26.12,0,0,0-6.82-12c-.24-.23-.47-.46-.71-.67s-.46-.5-.71-.74A26.06,26.06,0,0,0,608.68,100a28.79,28.79,0,0,0-5.53-.87,27.91,27.91,0,0,0,5.53-.86,26.06,26.06,0,0,0,12.06-6.83l.7-.72.72-.69A26.27,26.27,0,0,0,629,78a28.73,28.73,0,0,0,.86-5.55,28,28,0,0,0,.87,5.54A26.11,26.11,0,0,0,637.55,90c.24.24.49.48.73.7s.45.47.68.71A26.06,26.06,0,0,0,651,98.27,28.65,28.65,0,0,0,656.56,99.13Z"/><path class="cls-1" d="M554,27.08a29.69,29.69,0,0,0-5.62.88,26.49,26.49,0,0,0-12.23,6.93c-.24.24-.47.48-.7.73l-.73.7a26.58,26.58,0,0,0-6.93,12.23,28.79,28.79,0,0,0-.87,5.62,30,30,0,0,0-.88-5.64,26.53,26.53,0,0,0-6.93-12.21l-.72-.69c-.23-.25-.47-.5-.71-.74A26.54,26.54,0,0,0,505.43,28a29.69,29.69,0,0,0-5.62-.88,28.79,28.79,0,0,0,5.62-.87,26.54,26.54,0,0,0,12.23-6.93c.24-.24.47-.49.7-.73l.73-.7A26.56,26.56,0,0,0,526,5.63,29.9,29.9,0,0,0,526.9,0a28.79,28.79,0,0,0,.87,5.62,26.49,26.49,0,0,0,6.93,12.23l.75.71.68.72a26.49,26.49,0,0,0,12.23,6.93A28.79,28.79,0,0,0,554,27.08Z"/></g></g></svg>